 <svg  version="1.0" xmlns="http://www.w3.org/2000/svg"  width="100px" height="100px" viewBox="0 0 300.000000 259.000000"  preserveAspectRatio="xMidYMid meet">  <g transform="translate(0.000000,259.000000) scale(0.100000,-0.100000)" fill="#ffffff" stroke="none"> <path d="M1457 2352 c-16 -17 -17 -88 -17 -818 l0 -799 -273 273 c-291 290 -301 298 -347 252 -47 -47 -41 -55 277 -371 249 -247 305 -297 339 -307 119 -34 136 -23 475 319 304 307 311 317 269 359 -46 46 -56 38 -347 -252 l-273 -273 0 801 c0 763 -1 802 -18 817 -24 22 -65 21 -85 -1z"/> <path d="M619 729 c-19 -19 -20 -30 -17 -193 3 -169 4 -173 31 -214 15 -23 45 -51 67 -62 38 -20 56 -20 803 -20 l763 0 46 29 c76 48 88 86 88 279 0 149 -2 164 -20 182 -27 27 -62 25 -88 -3 -21 -22 -22 -33 -22 -174 l0 -152 -26 -20 c-26 -21 -34 -21 -741 -21 -716 0 -743 1 -765 34 -4 6 -8 77 -8 157 0 133 -2 149 -21 173 -25 32 -61 34 -90 5z"/> </g> </svg> 