 <svg  version="1.0" xmlns="http://www.w3.org/2000/svg"  width="100px" height="100px" viewBox="0 0 200.000000 200.000000"  preserveAspectRatio="xMidYMid meet">  <g transform="translate(0.000000,200.000000) scale(0.050000,-0.050000)" fill="#ffffff" stroke="none"> <path d="M850 3264 c-475 -165 -609 -442 -610 -1252 0 -651 42 -828 252 -1052 240 -257 362 -279 1509 -280 1142 0 1250 18 1491 256 229 225 268 381 268 1064 0 793 -96 1029 -498 1226 l-132 64 -1090 5 c-994 4 -1099 1 -1190 -31z m2214 -305 c120 -33 239 -138 306 -268 l60 -118 0 -573 0 -573 -60 -118 c-146 -285 -165 -289 -1380 -289 l-1000 0 -100 48 c-279 132 -309 223 -309 932 -1 709 33 809 319 938 103 47 2005 65 2164 21z"/> <path d="M840 2010 l0 -650 165 0 165 0 0 650 0 650 -165 0 -165 0 0 -650z"/> <path d="M1340 2010 l0 -650 160 0 160 0 0 650 0 650 -160 0 -160 0 0 -650z"/> <path d="M1840 2010 l0 -650 160 0 160 0 0 650 0 650 -160 0 -160 0 0 -650z"/> <path d="M2310 2010 l0 -650 165 0 165 0 0 650 0 650 -165 0 -165 0 0 -650z"/> <path d="M2800 2010 l0 -650 170 0 170 0 0 650 0 650 -170 0 -170 0 0 -650z"/> </g> </svg> 