 <svg  version="1.0" xmlns="http://www.w3.org/2000/svg"  width="100px" height="100px" viewBox="0 0 300.000000 249.000000"  preserveAspectRatio="xMidYMid meet">  <g transform="translate(0.000000,249.000000) scale(0.100000,-0.100000)" fill="#ffffff" stroke="none"> <path d="M1115 2156 c-22 -7 -54 -20 -71 -29 -36 -18 -106 -92 -128 -135 l-15 -29 -163 -5 c-149 -4 -168 -7 -219 -30 -76 -35 -133 -88 -166 -156 l-28 -57 0 -615 c0 -607 0 -616 21 -661 32 -69 91 -128 159 -161 l60 -28 935 0 935 0 60 28 c68 33 127 92 159 161 21 45 21 54 21 661 l0 615 -28 57 c-33 68 -90 121 -166 156 -51 23 -70 26 -218 30 l-163 5 -24 41 c-34 58 -93 111 -151 138 -49 23 -58 23 -410 25 -271 2 -370 -1 -400 -11z m738 -219 c15 -9 42 -48 61 -85 55 -110 46 -106 280 -112 207 -5 235 -10 256 -50 6 -12 10 -221 10 -595 l0 -577 -29 -29 -29 -29 -902 0 -902 0 -29 29 -29 29 0 577 c0 374 4 583 10 595 21 40 49 45 256 50 234 6 225 2 279 111 37 72 50 86 92 99 15 5 168 8 338 7 279 -2 314 -4 338 -20z"/> <path d="M1823 1645 c-17 -7 -39 -28 -48 -45 -12 -24 -21 -30 -33 -24 -89 39 -153 53 -237 54 -160 0 -269 -44 -381 -155 -80 -79 -134 -178 -142 -257 -4 -44 -2 -50 31 -83 69 -69 145 -37 187 76 42 116 149 196 276 207 89 7 98 2 78 -42 -21 -42 -13 -79 26 -117 l28 -29 142 0 c214 0 220 6 220 218 0 154 -6 173 -66 198 -40 17 -41 17 -81 -1z"/> <path d="M1852 1075 c-17 -14 -38 -49 -51 -83 -43 -119 -148 -199 -275 -209 -91 -8 -100 -3 -80 41 21 42 13 79 -26 117 l-28 29 -147 0 -147 0 -34 -34 -34 -34 0 -145 c0 -163 8 -185 75 -207 30 -10 41 -9 73 7 20 10 43 30 50 45 l12 26 58 -23 c158 -64 349 -46 494 47 110 70 216 224 226 328 4 46 2 52 -31 85 -44 44 -91 47 -135 10z"/> </g> </svg> 