 <svg  version="1.0" xmlns="http://www.w3.org/2000/svg"  width="100px" height="100px" viewBox="0 0 300.000000 248.000000"  preserveAspectRatio="xMidYMid meet">  <g transform="translate(0.000000,248.000000) scale(0.100000,-0.100000)" fill="#ffffff" stroke="none"> <path d="M1662 1818 c-8 -8 -12 -58 -12 -160 l0 -148 -580 0 c-562 0 -580 -1 -590 -19 -15 -29 -14 -583 2 -599 9 -9 154 -12 590 -12 l578 0 0 -149 c0 -123 3 -152 16 -165 8 -9 21 -16 27 -16 19 0 821 609 831 631 7 16 4 25 -15 43 -57 55 -799 606 -816 606 -11 0 -24 -5 -31 -12z"/> </g> </svg> 