 <svg  version="1.0" xmlns="http://www.w3.org/2000/svg"  width="100px" height="100px" viewBox="0 0 200.000000 200.000000"  preserveAspectRatio="xMidYMid meet">  <g transform="translate(0.000000,200.000000) scale(0.050000,-0.050000)" fill="#ffffff" stroke="none"> <path d="M1060 3608 c-228 -99 -280 -233 -279 -728 0 -491 -1 -488 294 -767 425 -401 385 -302 385 -956 0 -738 69 -817 710 -817 357 0 468 25 577 131 143 138 134 42 128 1537 l-5 1348 -63 87 c-38 52 -104 109 -167 142 l-105 55 -702 -1 c-583 0 -715 -6 -773 -31z m1470 -197 c156 -65 150 -5 150 -1417 0 -1574 50 -1434 -510 -1434 -526 0 -510 -21 -510 687 l0 508 -55 100 c-35 65 -149 188 -321 347 -308 286 -289 241 -292 695 -3 562 -32 543 834 543 508 0 649 -6 704 -29z"/> <path d="M1270 3252 c-256 -114 -228 -497 42 -570 155 -42 329 53 368 200 69 253 -176 474 -410 370z m207 -270 c12 -85 -93 -138 -153 -78 -70 70 23 202 105 148 23 -14 44 -46 48 -70z"/> <path d="M2150 3249 c-262 -137 -229 -494 53 -570 275 -74 486 264 302 483 -94 112 -239 147 -355 87z m206 -238 c41 -90 -83 -176 -152 -107 -37 37 -28 111 17 143 53 37 108 22 135 -36z"/> <path d="M2150 2332 c-256 -114 -229 -483 42 -573 159 -52 349 68 378 239 40 239 -201 431 -420 334z m173 -197 c74 -59 41 -175 -50 -175 -95 0 -128 113 -49 169 54 37 60 38 99 6z"/> <path d="M2186 1438 c-210 -61 -282 -342 -130 -503 199 -211 563 -24 514 265 -29 174 -213 288 -384 238z m161 -239 c35 -51 21 -113 -31 -141 -85 -45 -181 89 -112 158 37 37 111 28 143 -17z"/> </g> </svg> 