 <svg  version="1.0" xmlns="http://www.w3.org/2000/svg"  width="100px" height="100px" viewBox="0 0 300.000000 262.000000"  preserveAspectRatio="xMidYMid meet">  <g transform="translate(0.000000,262.000000) scale(0.100000,-0.100000)" fill="#ffffff" stroke="none"> <path d="M1365 2534 c-212 -33 -392 -100 -550 -207 -83 -57 -218 -188 -284 -277 -109 -147 -197 -355 -222 -528 -19 -136 -7 -376 26 -492 55 -200 147 -365 283 -511 413 -440 1057 -513 1562 -176 105 70 272 243 338 350 108 174 173 371 176 532 1 80 -2 94 -22 123 -31 43 -77 65 -133 66 -94 0 -150 -67 -164 -193 -3 -35 -18 -101 -32 -145 -72 -232 -230 -417 -448 -526 -144 -73 -229 -92 -395 -92 -166 0 -251 19 -395 92 -219 110 -372 289 -451 530 -26 79 -28 97 -28 250 -1 191 10 242 79 385 134 279 386 457 698 497 172 22 384 -22 535 -110 l64 -37 -74 -5 c-92 -7 -135 -30 -166 -90 -40 -78 -19 -155 58 -207 32 -23 39 -23 319 -23 320 0 332 2 379 71 23 33 23 35 20 334 -3 339 -2 335 -84 375 -51 25 -94 25 -143 0 -52 -26 -82 -76 -88 -150 -3 -33 -8 -60 -10 -60 -2 0 -23 13 -46 29 -103 70 -270 141 -407 172 -83 19 -327 33 -395 23z"/> </g> </svg> 