 <svg  version="1.0" xmlns="http://www.w3.org/2000/svg"  width="100px" height="100px" viewBox="0 0 300.000000 251.000000"  preserveAspectRatio="xMidYMid meet">  <g transform="translate(0.000000,251.000000) scale(0.100000,-0.100000)" fill="#ffffff" stroke="none"> <path d="M1330 2264 c-303 -64 -565 -272 -708 -561 l-46 -93 -56 139 c-30 76 -61 146 -69 155 -22 26 -82 18 -100 -15 -13 -23 -8 -39 79 -257 80 -202 96 -234 120 -247 16 -8 35 -15 42 -15 7 0 115 41 239 90 188 76 228 95 238 116 9 20 8 32 -1 52 -22 45 -63 41 -230 -27 -82 -33 -148 -56 -148 -53 0 4 20 47 45 97 58 117 155 239 251 315 88 70 247 150 349 176 95 24 285 24 380 0 99 -25 240 -96 323 -162 134 -107 253 -290 301 -463 23 -85 37 -103 77 -103 28 0 64 32 64 57 0 35 -55 196 -94 273 -134 266 -356 447 -635 518 -76 20 -118 24 -225 23 -72 0 -160 -7 -196 -15z"/> <path d="M2164 989 c-183 -74 -223 -94 -233 -115 -9 -20 -8 -32 1 -52 21 -44 57 -40 224 26 82 33 151 58 153 56 9 -8 -86 -182 -139 -252 -122 -162 -310 -288 -505 -338 -95 -24 -284 -24 -380 0 -99 25 -240 96 -323 162 -134 107 -253 290 -301 463 -23 85 -37 104 -77 104 -28 0 -64 -33 -64 -58 0 -35 55 -196 94 -273 129 -255 342 -436 608 -513 105 -30 324 -38 439 -14 303 61 565 264 712 552 l52 102 55 -138 c30 -76 61 -146 69 -155 16 -19 72 -21 89 -4 25 25 10 84 -74 293 -74 185 -90 218 -115 230 -15 8 -36 15 -46 14 -10 0 -118 -41 -239 -90z"/> </g> </svg> 